<?xml version="1.0" encoding="utf-8"?>
<!-- Generator: Adobe Illustrator 18.1.1, SVG Export Plug-In . SVG Version: 6.00 Build 0)  -->
<!DOCTYPE svg PUBLIC "-//W3C//DTD SVG 1.1//EN" "http://www.w3.org/Graphics/SVG/1.1/DTD/svg11.dtd">
<svg version="1.1" xmlns="http://www.w3.org/2000/svg" xmlns:xlink="http://www.w3.org/1999/xlink" viewBox="0 0 16 16" focusable="false">
<style type="text/css">
	.icon-canvas-transparent{opacity:0;fill:#F6F6F6;}
	.icon-vs-out{fill:#F6F6F6;}
	.icon-vs-blue{fill:#1BA1E2;}
	.icon-white{fill:#FFFFFF;}
</style>
<g id="canvas">
	<path class="icon-canvas-transparent" d="M16,16H0V0h16V16z"/>
</g>
<g id="outline">
	<path class="icon-vs-out" d="M0,8c0-4.418,3.582-8,8-8c4.418,0,8,3.582,8,8c0,4.418-3.582,8-8,8C3.582,16,0,12.418,0,8
		z"/>
</g>
<g id="iconBg">
	<path class="icon-vs-blue" d="M8,1C4.135,1,1,4.135,1,8c0,3.865,3.135,7,7,7c3.865,0,7-3.135,7-7
		C15,4.135,11.865,1,8,1z M9,13H7V6h2V13z M9,5H7V3h2V5z"/>
</g>
<g id="iconFg">
	<path class="icon-white" d="M7,6h2v7H7V6z M7,5h2V3H7V5z"/>
</g>
</svg>
