<svg viewBox="0 0 16 16" fill="none" xmlns="http://www.w3.org/2000/svg">
  <path d="M8 5V4H6.949C6.88503 3.68717 6.76108 3.3897 6.584 3.124L7.329 2.379L6.622 1.672L5.877 2.417C5.61112 2.23936 5.31328 2.11506 5 2.051V1H4V2.051C3.68672 2.11506 3.38888 2.23936 3.123 2.417L2.378 1.672L1.671 2.379L2.416 3.124C2.23892 3.3897 2.11497 3.68717 2.051 4H1V5H2.051C2.11497 5.31283 2.23892 5.6103 2.416 5.876L1.671 6.621L2.378 7.328L3.123 6.583C3.38888 6.76064 3.68672 6.88494 4 6.949V8H5V6.949C5.31328 6.88494 5.61112 6.76064 5.877 6.583L6.622 7.328L7.329 6.621L6.584 5.876C6.76108 5.6103 6.88503 5.31283 6.949 5H8ZM4.5 6C4.20333 6 3.91332 5.91203 3.66664 5.7472C3.41997 5.58238 3.22771 5.34811 3.11418 5.07403C3.00065 4.79994 2.97094 4.49834 3.02882 4.20736C3.0867 3.91639 3.22956 3.64912 3.43934 3.43934C3.64912 3.22956 3.91639 3.0867 4.20736 3.02882C4.49834 2.97094 4.79994 3.00065 5.07403 3.11418C5.34811 3.22771 5.58238 3.41997 5.7472 3.66664C5.91203 3.91332 6 4.20333 6 4.5C6 4.89782 5.84196 5.27936 5.56066 5.56066C5.27936 5.84196 4.89782 6 4.5 6Z" fill="#1F1F1F" />
  <path d="M13.937 10.633C13.9355 10.3686 13.9019 10.1053 13.837 9.849L15.079 9.335L14.696 8.411L13.452 8.926C13.1753 8.47331 12.7939 8.09367 12.34 7.819L12.855 6.574L11.932 6.191L11.417 7.433C10.9035 7.29433 10.3625 7.29433 9.849 7.433L9.335 6.191L8.411 6.574L8.926 7.819C8.47381 8.0942 8.0942 8.47381 7.819 8.926L6.575 8.411L6.192 9.335L7.433 9.849C7.29433 10.3625 7.29433 10.9035 7.433 11.417L6.192 11.932L6.575 12.855L7.819 12.34C8.09417 12.7925 8.47377 13.1724 8.926 13.448L8.411 14.691L9.335 15.074L9.849 13.833C10.3626 13.973 10.9044 13.973 11.418 13.833L11.932 15.074L12.855 14.691L12.34 13.448C12.7928 13.1728 13.1728 12.7928 13.448 12.34L14.692 12.855L15.075 11.932L13.833 11.417C13.8992 11.1608 13.9341 10.8976 13.937 10.633ZM8.329 10.633C8.32999 10.1783 8.46572 9.73413 8.71905 9.35655C8.97238 8.97898 9.33193 8.68496 9.75229 8.51165C10.1726 8.33833 10.6349 8.2935 11.0808 8.3828C11.5266 8.47211 11.9359 8.69156 12.2571 9.01342C12.5783 9.33528 12.7968 9.74511 12.8852 10.1911C12.9735 10.6371 12.9277 11.0993 12.7534 11.5193C12.5792 11.9393 12.2844 12.2982 11.9063 12.5507C11.5282 12.8032 11.0837 12.938 10.629 12.938C10.0187 12.9361 9.43401 12.6925 9.00293 12.2605C8.57186 11.8285 8.32953 11.2433 8.329 10.633V10.633Z" fill="#1F1F1F" />
</svg>