<svg xmlns="http://www.w3.org/2000/svg" viewBox="0 0 16 16" focusable="false"><defs><style>.icon-canvas-transparent,.icon-vs-out{fill:#f6f6f6;}.icon-canvas-transparent{opacity:0;}.icon-vs-bg{fill:#424242;}.icon-vs-fg{fill:#f0eff1;}.cls-1{fill:#00539c;}</style></defs><g id="canvas"><path class="icon-canvas-transparent" d="M16,0V16H0V0Z"/></g><g id="outline"><path class="icon-vs-out" d="M11,5V0H4V.03A2.919,2.919,0,0,0,3,.35V0H1.6L0,1.51V5H3.06l.5-.01L1.6,6.71l2.1,2.1L5.8,7H6v8h4v1h6V5Z"/></g><g id="iconBg"><path class="icon-vs-bg" d="M15,10V6H11V8H8V6h2V1H6.94a3.09,3.09,0,0,1,.71,1H9V5H7.66a3.712,3.712,0,0,1-.71,1H7v8h4v1h4V11H11v2H8V9h3v1ZM12,7h2V9H12Zm0,5h2v2H12Z"/></g><g id="iconFg"><path class="icon-vs-fg" d="M7.65,2A3.28,3.28,0,0,1,8,3.5,3.471,3.471,0,0,1,7.66,5H9V2ZM12,12v2h2V12Zm0-5V9h2V7Z"/></g><g id="coloraction"><path class="cls-1" d="M7,3.5A2.5,2.5,0,0,0,4.5,1a2.336,2.336,0,0,0-1.615.594L2,2.362V1L1,1.945V4H3.062l-.031-.031L4,3H2.76l.773-.644A1.759,1.759,0,0,1,4.5,2a1.5,1.5,0,0,1,.969,2.645L3.062,6.757l.688.687L6.127,5.4A2.5,2.5,0,0,0,7,3.5Z"/><path class="cls-1" d="M7,3.5A2.5,2.5,0,0,0,4.5,1a2.336,2.336,0,0,0-1.615.594L2,2.362V1L1,1.945V4H3.062l-.031-.031L4,3H2.76l.773-.644A1.759,1.759,0,0,1,4.5,2a1.5,1.5,0,0,1,.969,2.645L3.062,6.757l.688.687L6.127,5.4A2.5,2.5,0,0,0,7,3.5Z"/></g></svg>