<svg xmlns="http://www.w3.org/2000/svg" viewBox="0 0 16 16" focusable="false"><style>.icon-canvas-transparent{opacity:0;fill:#f6f6f6}.icon-vs-out{fill:#f6f6f6}.icon-vs-bg{fill:#424242}</style><path class="icon-canvas-transparent" d="M16 16H0V0h16v16z" id="canvas"/><path class="icon-vs-out" d="M14 11v4h-1.5a6.524 6.524 0 0 1-2.5-.5V16H6V7.5l-3 3V5l5-5 5 5v5.5l-3-3v1c0 1.379 1.121 2.5 2.5 2.5H14z" id="outline"/><path class="icon-vs-bg" d="M13 12v2h-.5A5.474 5.474 0 0 1 9 12.742V15H7V5L4 8V5.5l4-4 4 4V8L9 5v3.5a3.5 3.5 0 0 0 3.5 3.5h.5z" id="iconBg"/></svg>