<svg xmlns="http://www.w3.org/2000/svg" width="16" height="16"><style type="text/css">.icon-canvas-transparent{opacity:0;fill:#F6F6F6;} .icon-vs-out{fill:#F6F6F6;} .icon-vs-fg{fill:#F0EFF1;} .icon-visualstudio{fill:#68217A;}</style><path class="icon-canvas-transparent" d="M16 16h-16v-16h16v16z" id="canvas"/><path class="icon-vs-out" d="M13.542 5h-.003c0 1-.233 2.226-1.661 3.653-.362.331-.952 1.661-1.378 2.729v2.476l-1.495 2.142h-1.991l-1.514-2.13v-2.5c-.425-1.068-1.015-2.387-1.342-2.684-1.459-1.457-1.696-2.686-1.697-3.686h-.003c-.007-2 .494-2.854 1.41-3.778.576-.579 1.307-.975 2.156-1.222h3.943c.853.248 1.588.647 2.165 1.228.917.924 1.418 1.772 1.41 3.772z" id="outline"/><path class="icon-visualstudio" d="M6.5 12h3v1h-3v-1zm.944 3h1.125l.932-1h-3.002l.945 1zm.556-14.299c-3.511.011-4.551 2.268-4.542 4.246-.009.067.039 1.643 1.371 2.975.721.653 1.686 3.078 1.686 3.078h2.97s.965-2.425 1.686-3.078c1.332-1.332 1.381-2.908 1.371-2.975.01-1.978-1.031-4.235-4.542-4.246z" id="iconBg"/><g id="iconFg"><path class="icon-vs-fg" d="M10.5 5c0 1.458-1 1.3-1 1.3l-.5 2.7h-.49l-.01-3s1 .021 1-1h-3c0 1 1 1 1 1l.01 3h-.51l-.5-2.7s-1 .158-1-1.3c0-.354.375-1 1-1h3c.625 0 1 .646 1 1z"/></g></svg>